# xmcd
#
# Track frame offsets: 
#        150
#        16775
#        31688
#        53765
#        71615
#        91045
#        110558
#        125110
#        145737
#        165012
#        177237
#        207612
#        224864
#        242566
#        259143
#        280481
#
# Disc length: 3996 seconds
#
# Revision: 0
# Processed by: cddbd v1.5.2PL0 Copyright (c) Steve Scherf et al.
# Submitted via: ExactAudioCopy v0.99pb4
#
DISCID=e60f9a10
DTITLE=Various Artist - LOVE_YOU_FOREVER_2
DYEAR=2008
DGENRE=Black Metal
TTITLE0=奔放的旋律
TTITLE1=走出埃及
TTITLE2=玫瑰之吻
TTITLE3=圣婴降临
TTITLE4=每一次你离去
TTITLE5=你走的原因
TTITLE6=把你的吻留下
TTITLE7=我不能停止爱你
TTITLE8=永远的安全岛
TTITLE9=琼尼
TTITLE10=萨特的磨坊
TTITLE11=寻觅爱情
TTITLE12=我亲爱的上帝
TTITLE13=交换舞伴
TTITLE14=爱的力量
TTITLE15=电话诉衷情
EXTD=
EXTT0=
EXTT1=
EXTT2=
EXTT3=
EXTT4=
EXTT5=
EXTT6=
EXTT7=
EXTT8=
EXTT9=
EXTT10=
EXTT11=
EXTT12=
EXTT13=
EXTT14=
EXTT15=
PLAYORDER=
